<?xml version="1.0" encoding="UTF-8"?>
<svg width="15px" height="19px" viewBox="0 0 15 19" version="1.1" xmlns="http://www.w3.org/2000/svg" xmlns:xlink="http://www.w3.org/1999/xlink">
    <!-- Generator: Sketch 46.2 (44496) - http://www.bohemiancoding.com/sketch -->
    <title>Shape</title>
    <desc>Created with Sketch.</desc>
    <defs></defs>
    <g id="Header-Spec" stroke="none" stroke-width="1" fill="none" fill-rule="evenodd">
        <g id="Header-&gt;-Spec" transform="translate(-114.000000, -131.000000)" fill="#121212">
            <g id="Group" transform="translate(85.000000, 118.000000)">
                <path d="M43.7978203,24.4491 C43.1995603,26.0298025 42.0967715,27.2517805 40.516069,27.8986419 L40.516069,24.4491 L42.4080518,22.7480512 L40.516069,21.0713031 L40.516069,18.7002493 C42.2402613,18.579903 43.4379385,17.3104809 43.4379385,15.754079 C43.4379385,13.7186063 41.4985115,13 40.3957227,13 C40.1561872,13 39.8923511,13 39.5093258,13.0960456 L39.5093258,13.1920912 C39.6528156,13.1920912 39.8680504,13.1677905 39.9397953,13.1677905 C40.7058458,13.1677905 41.2809623,13.5276723 41.2809623,14.2219779 C41.2809623,14.748493 40.8493357,15.2761653 40.0832851,15.2761653 C38.1913022,15.2761653 35.9637383,13.742907 33.5440831,13.742907 C31.3882641,13.742907 29.9036072,15.3479102 29.9036072,16.976057 C29.9036072,18.5810602 30.8374483,19.1075753 31.8198908,19.4674571 L31.8441915,19.3714114 C31.5340683,19.1793202 31.3188336,18.8448963 31.3188336,18.317224 C31.3188336,17.5986177 31.9899957,17.0003577 32.8277912,17.0003577 C34.8632639,17.0003577 38.1450152,18.7014065 40.1816451,18.7014065 L40.3725791,18.7014065 L40.3725791,21.096761 L38.4805963,22.7480512 L40.3725791,24.4491 L40.3725791,27.9460861 C39.5822279,28.2330658 38.7675759,28.3534121 37.9297805,28.3534121 C34.7683754,28.3534121 32.7560462,26.4371285 32.7560462,23.2514228 C32.7560462,22.4853722 32.8520919,21.7424652 33.0673266,21.0238589 L34.6480291,20.3295532 L34.6480291,27.3709696 L37.8580355,25.9580576 L37.8580355,18.7488507 L33.1390715,20.8560683 C33.6181424,19.4674571 34.6005849,18.4607139 35.7739614,17.8855974 L35.7496607,17.8138524 C32.5882557,18.5081581 29.5217391,20.9035126 29.5217391,24.4965443 C29.5228963,28.6403918 33.0198824,31.5148171 37.0908278,31.5148171 C41.4024658,31.5148171 43.8452645,28.6403918 43.8695652,24.4491 L43.7978203,24.4491 L43.7978203,24.4491 Z" id="Shape"></path>
            </g>
        </g>
    </g>
</svg>